<svg width="186" height="24" viewBox="0 0 186 24" fill="none" xmlns="http://www.w3.org/2000/svg">
<path d="M16.168 5.608L8.416 24H4L6.424 18.544L0.975998 5.608H5.56L8.656 13.984L11.728 5.608H16.168Z" fill="#3F4255"/>
<path d="M31.4761 12.088C31.4761 12.472 31.4521 12.872 31.4041 13.288H22.1161C22.1801 14.12 22.4441 14.76 22.9081 15.208C23.3881 15.64 23.9721 15.856 24.6601 15.856C25.6841 15.856 26.3961 15.424 26.7961 14.56H31.1641C30.9401 15.44 30.5321 16.232 29.9401 16.936C29.3641 17.64 28.6361 18.192 27.7561 18.592C26.8761 18.992 25.8921 19.192 24.8041 19.192C23.4921 19.192 22.3241 18.912 21.3001 18.352C20.2761 17.792 19.4761 16.992 18.9001 15.952C18.3241 14.912 18.0361 13.696 18.0361 12.304C18.0361 10.912 18.3161 9.696 18.8761 8.656C19.4521 7.616 20.2521 6.816 21.2761 6.256C22.3001 5.696 23.4761 5.416 24.8041 5.416C26.1001 5.416 27.2521 5.688 28.2601 6.232C29.2681 6.776 30.0521 7.552 30.6121 8.56C31.1881 9.568 31.4761 10.744 31.4761 12.088ZM27.2761 11.008C27.2761 10.304 27.0361 9.744 26.5561 9.328C26.0761 8.912 25.4761 8.704 24.7561 8.704C24.0681 8.704 23.4841 8.904 23.0041 9.304C22.5401 9.704 22.2521 10.272 22.1401 11.008H27.2761Z" fill="#3F4255"/>
<path d="M38.9451 1.24872e-05V19H34.8411V1.24872e-05H38.9451Z" fill="#3F4255"/>
<path d="M47.2232 1.24872e-05V19H43.1192V1.24872e-05H47.2232Z" fill="#3F4255"/>
<path d="M57.4934 19.192C56.1814 19.192 54.9974 18.912 53.9414 18.352C52.9014 17.792 52.0774 16.992 51.4694 15.952C50.8774 14.912 50.5814 13.696 50.5814 12.304C50.5814 10.928 50.8854 9.72 51.4934 8.68C52.1014 7.624 52.9334 6.816 53.9894 6.256C55.0454 5.696 56.2294 5.416 57.5414 5.416C58.8534 5.416 60.0374 5.696 61.0934 6.256C62.1494 6.816 62.9814 7.624 63.5894 8.68C64.1974 9.72 64.5014 10.928 64.5014 12.304C64.5014 13.68 64.1894 14.896 63.5654 15.952C62.9574 16.992 62.1174 17.792 61.0454 18.352C59.9894 18.912 58.8054 19.192 57.4934 19.192ZM57.4934 15.64C58.2774 15.64 58.9414 15.352 59.4854 14.776C60.0454 14.2 60.3254 13.376 60.3254 12.304C60.3254 11.232 60.0534 10.408 59.5094 9.832C58.9814 9.256 58.3254 8.968 57.5414 8.968C56.7414 8.968 56.0774 9.256 55.5494 9.832C55.0214 10.392 54.7574 11.216 54.7574 12.304C54.7574 13.376 55.0134 14.2 55.5254 14.776C56.0534 15.352 56.7094 15.64 57.4934 15.64Z" fill="#3F4255"/>
<path d="M87.1026 5.608L83.4786 19H78.9426L76.8306 10.312L74.6466 19H70.1346L66.4866 5.608H70.5906L72.4866 15.184L74.7426 5.608H79.0866L81.3666 15.136L83.2386 5.608H87.1026Z" fill="#3F4255"/>
<path d="M97.9077 19L93.3957 13.336V19H90.0357V1.24872e-05H93.3957V11.344L97.8597 5.704H102.228L96.3717 12.376L102.276 19H97.9077Z" fill="#3F4255"/>
<path d="M106.936 3.96801C106.344 3.96801 105.848 3.78401 105.448 3.41601C105.064 3.03201 104.872 2.56001 104.872 2.00001C104.872 1.44001 105.064 0.976012 105.448 0.608012C105.848 0.224012 106.344 0.0320121 106.936 0.0320121C107.528 0.0320121 108.016 0.224012 108.4 0.608012C108.8 0.976012 109 1.44001 109 2.00001C109 2.56001 108.8 3.03201 108.4 3.41601C108.016 3.78401 107.528 3.96801 106.936 3.96801ZM108.611 5.704V19H105.251V5.704H108.611Z" fill="#3F4255"/>
<path d="M117.043 8.464V14.896C117.043 15.344 117.147 15.672 117.355 15.88C117.579 16.072 117.947 16.168 118.459 16.168H120.019V19H117.907C115.075 19 113.659 17.624 113.659 14.872V8.464H112.075V5.704H113.659L113.616 0H117L117.043 5.704H120.019V8.464H117.043Z" fill="#3F4255"/>
<path d="M122.772 12.352C122.772 10.976 123.052 9.776 123.612 8.752C124.172 7.712 124.948 6.912 125.94 6.352C126.932 5.776 128.068 5.488 129.348 5.488C130.996 5.488 132.356 5.904 133.428 6.736C134.516 7.552 135.244 8.704 135.612 10.192H131.988C131.796 9.616 131.468 9.168 131.004 8.848C130.556 8.512 129.996 8.344 129.324 8.344C128.364 8.344 127.604 8.696 127.044 9.4C126.484 10.088 126.204 11.072 126.204 12.352C126.204 13.616 126.484 14.6 127.044 15.304C127.604 15.992 128.364 16.336 129.324 16.336C130.684 16.336 131.572 15.728 131.988 14.512H135.612C135.244 15.952 134.516 17.096 133.428 17.944C132.34 18.792 130.98 19.216 129.348 19.216C128.068 19.216 126.932 18.936 125.94 18.376C124.948 17.8 124.172 17 123.612 15.976C123.052 14.936 122.772 13.728 122.772 12.352Z" fill="#3F4255"/>
<path d="M146.761 5.512C147.769 5.512 148.665 5.736 149.449 6.184C150.233 6.616 150.841 7.264 151.273 8.128C151.721 8.976 151.945 10 151.945 11.2V19H148.585V11.656C148.585 10.6 148.321 9.792 147.793 9.232C147.265 8.656 146.545 8.368 145.633 8.368C144.705 8.368 143.969 8.656 143.425 9.232C142.897 9.792 142.633 10.6 142.633 11.656V19H139.273V0H142.633V7.36C143.065 6.784 143.641 6.336 144.361 6.016C145.081 5.68 145.881 5.512 146.761 5.512Z" fill="#3F4255"/>
<path d="M168.7 12.064C168.7 12.544 168.668 12.976 168.604 13.36H158.884C158.964 14.32 159.3 15.072 159.892 15.616C160.484 16.16 161.212 16.432 162.076 16.432C163.324 16.432 164.212 15.896 164.74 14.824H168.364C167.98 16.104 167.244 17.16 166.156 17.992C165.068 18.808 163.732 19.216 162.148 19.216C160.868 19.216 159.716 18.936 158.692 18.376C157.684 17.8 156.892 16.992 156.316 15.952C155.756 14.912 155.476 13.712 155.476 12.352C155.476 10.976 155.756 9.768 156.316 8.728C156.876 7.688 157.66 6.888 158.668 6.328C159.676 5.768 160.836 5.488 162.148 5.488C163.412 5.488 164.54 5.76 165.532 6.304C166.54 6.848 167.316 7.624 167.86 8.632C168.42 9.624 168.7 10.768 168.7 12.064ZM165.22 11.104C165.204 10.24 164.892 9.552 164.284 9.04C163.676 8.512 162.932 8.248 162.052 8.248C161.22 8.248 160.516 8.504 159.94 9.016C159.38 9.512 159.036 10.208 158.908 11.104H165.22Z" fill="#3F4255"/>
<path d="M179.721 5.512C181.305 5.512 182.585 6.016 183.561 7.024C184.537 8.016 185.025 9.408 185.025 11.2V19H181.665V11.656C181.665 10.6 181.401 9.792 180.873 9.232C180.345 8.656 179.625 8.368 178.713 8.368C177.785 8.368 177.049 8.656 176.505 9.232C175.977 9.792 175.713 10.6 175.713 11.656V19H172.353V5.704H175.713V7.36C176.161 6.784 176.729 6.336 177.417 6.016C178.121 5.68 178.889 5.512 179.721 5.512Z" fill="#3F4255"/>
</svg>
